<?xml version="1.0" encoding="UTF-8"?>
<svg id="Layer_1" xmlns="http://www.w3.org/2000/svg" xmlns:xlink="http://www.w3.org/1999/xlink" version="1.1" viewBox="0 0 301 269">
  <!-- Generator: Adobe Illustrator 29.0.0, SVG Export Plug-In . SVG Version: 2.1.0 Build 186)  -->
  <defs>
    <style>
      .st0 {
        fill: none;
      }

      .st1 {
        fill: #fff;
      }

      .st2 {
        clip-path: url(#clippath);
      }
    </style>
    <clipPath id="clippath">
      <rect class="st0" x=".6" width="300" height="268.9"/>
    </clipPath>
  </defs>
  <g class="st2">
    <g>
      <path class="st1" d="M300.6,201.7v67.2h-168c-49,0-91.7-27-114.6-67.2-3.3-5.8-6.2-12-8.7-18.3-4.8-12.5-7.8-25.8-8.7-39.8v-18.2c.2-3.1.5-6.2.9-9.2.8-6.3,2.1-12.4,3.8-18.3C20.9,41.4,72,0,132.5,0s111.6,41.4,127.3,97.8h-71.8c-11.8-18.4-32.2-30.6-55.4-30.6s-43.6,12.2-55.4,30.6c-3.6,5.6-6.4,11.8-8.2,18.3-1.6,5.8-2.5,12-2.5,18.3,0,19.3,8,36.6,20.8,48.9,11.8,11.4,27.8,18.3,45.4,18.3h168Z"/>
      <path class="st1" d="M300.6,116.1v67.2h-122.7c12.8-12.3,20.8-29.6,20.8-48.9s-.9-12.5-2.5-18.3h104.4Z"/>
    </g>
  </g>
</svg>
